<svg xmlns="http://www.w3.org/2000/svg" width="125" height="24" fill="none"><path fill="#000" d="m42.193 5.304-4.072 8.954-1.74 3.83h3.243l6.33-12.784h-3.76zm-5.71 12.21c.297-1.395.42-2.625.373-3.687-.048-1.063-.189-1.975-.422-2.735-.098-.32-.204-.6-.31-.862l-2.166-4.925H30.17l6.181 12.75c.049-.183.095-.366.132-.541zM50.474.16v2.932h-3.336V.16h3.336zm-3.39 5.144h3.442v12.784h-3.442V5.304zm4.961 0h10.222v2.598H52.045V5.304zm3.39 0h3.443v12.784h-3.443V5.304zm7.836 0h10.222v2.598H63.271V5.304zm3.39 0h3.442v12.784h-3.442V5.304zm19.971 6.636.027.875a7.59 7.59 0 0 1-.265 1.042 7.514 7.514 0 0 1-1.774 2.932 5.413 5.413 0 0 1-1.695 1.158c-.671.3-1.465.45-2.383.45a8.922 8.922 0 0 1-2.131-.257 5.475 5.475 0 0 1-1.894-.862c-.565-.403-1.015-.947-1.35-1.634-.336-.685-.504-1.552-.504-2.598V5.304h3.443v7.176c0 .824.137 1.471.41 1.943.274.472.676.802 1.206.99.53.19 1.156.283 1.88.283.954 0 1.774-.201 2.463-.605a5.556 5.556 0 0 0 1.682-1.478c.43-.583.727-1.14.885-1.673zm-.185 3.042V5.304h3.443v12.784h-3.443v-3.106zm11.569 3.389c-1.324 0-2.52-.279-3.588-.835a6.364 6.364 0 0 1-2.53-2.342c-.617-1.003-.926-2.164-.926-3.485 0-1.354.305-2.53.914-3.524a6.33 6.33 0 0 1 2.503-2.328c1.06-.557 2.268-.836 3.628-.836 1.182 0 2.189.172 3.019.514.83.344 1.5.82 2.012 1.428a5.83 5.83 0 0 1 1.126 2.122 9.23 9.23 0 0 1 .357 2.623 7.6 7.6 0 0 1-.371 2.302 6.868 6.868 0 0 1-1.139 2.16c-.512.661-1.183 1.193-2.012 1.595-.831.405-1.828.606-2.993.606zm1.112-2.572c1.042 0 1.942-.17 2.702-.514.759-.343 1.341-.824 1.747-1.44.406-.618.609-1.329.609-2.135 0-.875-.208-1.616-.622-2.225-.415-.609-.998-1.076-1.748-1.402-.75-.326-1.646-.489-2.688-.489-1.466 0-2.604.378-3.416 1.132-.813.755-1.218 1.75-1.218 2.984 0 .823.194 1.539.582 2.147.388.609.931 1.086 1.63 1.428.696.343 1.504.514 2.422.514zM104.186.16h3.443v17.929h-3.205a31.426 31.426 0 0 1-.158-1.53 20.535 20.535 0 0 1-.08-1.763V.16zm17.291 13.684h3.337a4.576 4.576 0 0 1-1.125 2.34c-.61.687-1.435 1.227-2.476 1.621-1.042.395-2.313.592-3.814.592-1.677 0-3.16-.261-4.449-.785-1.289-.522-2.295-1.28-3.019-2.276-.723-.994-1.085-2.195-1.085-3.6 0-1.407.353-2.612 1.059-3.615.706-1.003 1.69-1.77 2.952-2.302s2.741-.797 4.436-.797c1.731 0 3.169.266 4.317.797 1.147.532 1.999 1.334 2.555 2.405.556 1.072.79 2.44.702 4.103h-12.552c.088.652.34 1.244.754 1.774.415.533.98.952 1.695 1.261.715.309 1.567.463 2.555.463 1.095 0 2.009-.184 2.741-.553.733-.369 1.206-.845 1.417-1.428zm-4.342-6.276c-1.271 0-2.304.27-3.098.81-.795.54-1.308 1.205-1.537 1.994h8.951c-.089-.858-.507-1.54-1.258-2.046-.751-.505-1.77-.758-3.058-.758zM14.085.14 12.03 4.657l-.877 1.932h1.635L15.982.14h-1.897zM11.204 6.3c.15-.704.212-1.325.188-1.86a5.627 5.627 0 0 0-.213-1.381 4.922 4.922 0 0 0-.156-.434L9.929.14H8.02l3.118 6.433c.024-.093.047-.185.067-.274zM9.916 23.452l2.054-4.518.878-1.932h-1.636l-3.194 6.45h1.898zm2.881-6.16c-.15.704-.212 1.324-.188 1.86.024.536.095.996.213 1.38.049.162.102.303.156.435l1.093 2.485h1.91l-3.117-6.433a5.376 5.376 0 0 0-.067.273zM24 13.82l-4.65-1.996-1.99-.852v1.59l6.64 3.1V13.82zm-6.341-2.798c.724.145 1.363.206 1.914.182a6.115 6.115 0 0 0 1.421-.206c.167-.048.312-.1.448-.152L24 9.784V7.928l-6.623 3.029c.096.024.19.047.282.065zM0 9.77l4.65 1.997 1.99.853v-1.59L0 7.928v1.843zm6.342 2.8c-.724-.145-1.363-.206-1.915-.183a6.11 6.11 0 0 0-1.421.207 5.39 5.39 0 0 0-.447.152L0 13.808v1.855l6.622-3.029a5.839 5.839 0 0 0-.281-.064zM21.96 4.985l-4.742 1.783-2.027.764 1.156 1.123 6.954-2.367-1.342-1.303zm-6.522 2.377c.618-.395 1.113-.79 1.487-1.186a5.79 5.79 0 0 0 .854-1.122c.083-.149.148-.285.206-.415l1.037-2.508L17.67.82l-2.48 6.69c.085-.048.169-.097.247-.147zM2.04 18.606l4.742-1.783 2.028-.764-1.158-1.123L.7 17.303l1.342 1.303zm6.522-2.377c-.618.395-1.113.79-1.487 1.187-.373.395-.658.77-.854 1.122a4.978 4.978 0 0 0-.206.415L4.978 21.46l1.351 1.312 2.479-6.69a7.584 7.584 0 0 0-.246.147zm10.45 5.241-1.836-4.606-.786-1.97-1.157 1.124 2.438 6.754 1.34-1.303zm-2.447-6.335c.406.6.814 1.082 1.222 1.444.407.363.792.64 1.155.83.152.08.292.144.427.2l2.582 1.007 1.35-1.312-6.887-2.407c.049.081.1.162.15.238zM4.988 2.122l1.837 4.605.785 1.97 1.158-1.124L6.33.819 4.988 2.122zm2.448 6.335c-.407-.601-.814-1.082-1.222-1.445a5.944 5.944 0 0 0-1.155-.83 5.267 5.267 0 0 0-.427-.2L2.05 4.976.7 6.288l6.887 2.407c-.05-.082-.1-.163-.151-.239z"/></svg>